<?xml version="1.0" encoding="utf-8"?>
<!-- Generator: Adobe Illustrator 18.0.0, SVG Export Plug-In . SVG Version: 6.00 Build 0)  -->
<!DOCTYPE svg PUBLIC "-//W3C//DTD SVG 1.1//EN" "http://www.w3.org/Graphics/SVG/1.1/DTD/svg11.dtd">
<svg version="1.1"
	 id="svg2" inkscape:version="0.48.4 r9939" inkscape:export-filename="/home/rhill/permahome/workshop/ublock/private/badge-1400x560.png" sodipodi:docname="ublock.svg" inkscape:export-xdpi="83.459267" inkscape:export-ydpi="83.459267" xmlns:sodipodi="http://sodipodi.sourceforge.net/DTD/sodipodi-0.dtd" xmlns:dc="http://purl.org/dc/elements/1.1/" xmlns:inkscape="http://www.inkscape.org/namespaces/inkscape" xmlns:cc="http://creativecommons.org/ns#" xmlns:rdf="http://www.w3.org/1999/02/22-rdf-syntax-ns#" xmlns:svg="http://www.w3.org/2000/svg"
	 xmlns="http://www.w3.org/2000/svg" xmlns:xlink="http://www.w3.org/1999/xlink" x="0px" y="0px" viewBox="-296 422.9 600 600"
	 style="enable-background:new -296 422.9 600 600;" xml:space="preserve">
<g>
	<g id="layer1" transform="translate(-2.9000336,4.3318037)" inkscape:groupmode="layer" inkscape:label="polygon">
		
			<g id="g3003" transform="matrix(4.4946163,0,0,4.4784113,-1996.8254,-3025.1919)" inkscape:export-xdpi="20.430607" inkscape:export-ydpi="20.430607">
			<g id="layer2" inkscape:label="polygon">
				<path id="path3788" inkscape:connector-curvature="0" style="fill:#800000;stroke:#FFFFFF;stroke-width:2;" d="M384.2,810.4v51
					l36.1,36.4h51.1l35.9-36.5v-51.7l-35-35.3H420L384.2,810.4z"/>
			</g>
		</g>
	</g>
	<g id="layer5" transform="translate(-2.9000336,4.3318037)" inkscape:groupmode="layer" inkscape:label="text">
		
			<g id="text3053" transform="matrix(0.97521805,0,0,1.0217146,0,0.07624875)" inkscape:export-xdpi="20.430607" inkscape:export-ydpi="20.430607">
			<path id="path3058" inkscape:connector-curvature="0" style="fill:#FFFFFF;" d="M-86.2,884.3h61.5v-53.6l-3.6-37.9
				c3.6,3.7,7.7,6.2,12.1,7.5c4.4,1.3,9.2,1.9,14.2,1.8c9.4,0,18.1-2.4,26-7.6c7.9-5.2,14.6-12.9,20-22.7h1.7l4.6,28.4h50.1V591.6
				H38.9v137.9c-6.2,8.2-11.7,14.1-17.5,17.8c-5.7,3.7-12.4,5.5-20,5.4c-8.8,0.2-15.5-2.6-19.7-8.6c-4.2-5.9-6.4-16.3-6.4-31V591.6
				h-61.5V884.3z"/>
		</g>
	</g>
</g>
</svg>
